<?xml version="1.0" encoding="utf-8"?>
<!-- Generator: Adobe Illustrator 22.0.0, SVG Export Plug-In . SVG Version: 6.00 Build 0)  -->
<svg version="1.1" id="图层_1" xmlns="http://www.w3.org/2000/svg" xmlns:xlink="http://www.w3.org/1999/xlink" x="0px" y="0px"
	 viewBox="0 0 885 836" style="enable-background:new 0 0 885 836;" xml:space="preserve">
<style type="text/css">
	.st0{opacity:0.4;fill:#F7931E;}
	.st1{opacity:0.4;fill:#FFFFFF;}
	.st2{opacity:0.86;fill:#FFFFFF;}
	.st3{fill:#F2F2F2;}
	.st4{fill:#FFB400;}
	.st5{fill:#FFFFFF;}
	.st6{fill:#F7931E;}
	.st7{fill:none;stroke:#FFFFFF;stroke-width:2;stroke-linecap:round;stroke-miterlimit:10;}
	.st8{fill:#FBB03B;}
	.st9{fill:#DFE6FD;}
	.st10{fill:#FFFF00;}
	.st11{fill-rule:evenodd;clip-rule:evenodd;fill:#11101A;}
	.st12{fill-rule:evenodd;clip-rule:evenodd;fill:#DB9669;}
	.st13{fill-rule:evenodd;clip-rule:evenodd;fill:#111214;}
	.st14{fill-rule:evenodd;clip-rule:evenodd;}
	.st15{fill-rule:evenodd;clip-rule:evenodd;fill:#20232E;}
	.st16{fill-rule:evenodd;clip-rule:evenodd;fill:#0A090F;}
	.st17{fill-rule:evenodd;clip-rule:evenodd;fill:#181624;}
	.st18{fill-rule:evenodd;clip-rule:evenodd;fill:#1F1C2E;}
	.st19{fill-rule:evenodd;clip-rule:evenodd;fill:#262338;}
	.st20{fill-rule:evenodd;clip-rule:evenodd;fill:#E8A476;}
	.st21{fill-rule:evenodd;clip-rule:evenodd;fill:#F1B287;}
	.st22{fill-rule:evenodd;clip-rule:evenodd;fill:#361D07;}
	.st23{fill-rule:evenodd;clip-rule:evenodd;fill:#4F2B0C;}
	.st24{fill-rule:evenodd;clip-rule:evenodd;fill:#54321E;}
	.st25{fill-rule:evenodd;clip-rule:evenodd;fill:#241304;}
	.st26{fill-rule:evenodd;clip-rule:evenodd;fill:#2F2C45;}
	.st27{fill-rule:evenodd;clip-rule:evenodd;fill:#E6EDFF;}
	.st28{opacity:0.22;fill-rule:evenodd;clip-rule:evenodd;fill:#0099DD;}
	.st29{fill-rule:evenodd;clip-rule:evenodd;fill:#CEE6F5;}
	.st30{fill-rule:evenodd;clip-rule:evenodd;fill:#001E30;}
	.st31{fill-rule:evenodd;clip-rule:evenodd;fill:#001624;}
	.st32{fill-rule:evenodd;clip-rule:evenodd;fill:#00263D;}
	.st33{fill-rule:evenodd;clip-rule:evenodd;fill:#00101A;}
	.st34{fill-rule:evenodd;clip-rule:evenodd;fill:#003454;}
	.st35{fill-rule:evenodd;clip-rule:evenodd;fill:#041E2E;}
	.st36{fill-rule:evenodd;clip-rule:evenodd;fill:#E8F6FF;}
	.st37{fill-rule:evenodd;clip-rule:evenodd;fill:#002B45;}
	.st38{fill-rule:evenodd;clip-rule:evenodd;fill:#4A2B12;}
	.st39{fill:#F2C4AC;}
	.st40{fill:#FFD7C2;}
	.st41{opacity:0.29;fill:#B79484;}
	.st42{opacity:0.34;fill:#F2C4AC;}
	.st43{opacity:0.37;fill:#D8B09E;}
	.st44{fill:#EDBF74;}
	.st45{fill:#C98F43;}
	.st46{fill:#3A4549;}
	.st47{fill:#4D575B;}
	.st48{opacity:0.22;fill:#0099DD;}
	.st49{fill:#DDB19E;}
	.st50{opacity:0.35;fill:#DDB19E;}
	.st51{fill:#D8B39A;}
	.st52{fill:#F2D3BD;}
	.st53{opacity:0.25;fill:#232F38;}
	.st54{fill:#61696D;}
	.st55{fill:#323B42;}
	.st56{opacity:0.35;fill:#383736;}
	.st57{fill:#6E777C;}
	.st58{opacity:0.3;fill:#161615;}
	
		.st59{fill-rule:evenodd;clip-rule:evenodd;fill:none;stroke:#FFB400;stroke-width:2;stroke-linecap:round;stroke-miterlimit:10;stroke-dasharray:3,3;}
	.st60{fill:none;stroke:#FFB400;stroke-width:2;stroke-linecap:round;stroke-miterlimit:10;stroke-dasharray:3,3;}
</style>
<g>
	<path class="st0" d="M618.9,424.9H264c-3.6,0-6.6-3-6.6-6.6V207.6c0-3.6,3-6.6,6.6-6.6h354.9c3.6,0,6.6,3,6.6,6.6v210.7
		C625.5,421.9,622.5,424.9,618.9,424.9z"/>
	<path class="st1" d="M614.9,423.8H268c-3.6,0-6.6-3-6.6-6.6V214.1c0-3.6,3-6.6,6.6-6.6h346.9c3.6,0,6.6,3,6.6,6.6v203.1
		C621.4,420.8,618.5,423.8,614.9,423.8z"/>
	<path class="st2" d="M610.8,425.4H272c-3.6,0-6.6-3-6.6-6.6V220.6c0-3.6,3-6.6,6.6-6.6h338.8c3.6,0,6.6,3,6.6,6.6v198.3
		C617.4,422.4,614.4,425.4,610.8,425.4z"/>
	<path class="st3" d="M605.4,424.8h-328c-3.6,0-6.6-3-6.6-6.6V226.5c0-3.6,3-6.6,6.6-6.6h328c3.6,0,6.6,3,6.6,6.6v191.8
		C612,421.9,609,424.8,605.4,424.8z"/>
	<path class="st4" d="M443.7,335.2H282.8c-2.1,0-3.8-1.7-3.8-3.8V254c0-2.1,1.7-3.8,3.8-3.8h160.9c2.1,0,3.8,1.7,3.8,3.8v77.4
		C447.5,333.5,445.8,335.2,443.7,335.2z"/>
	<path class="st5" d="M444.2,414.1H282.3c-1.8,0-3.3-1.5-3.3-3.3v-62.8c0-1.8,1.5-3.3,3.3-3.3h161.8c1.8,0,3.3,1.5,3.3,3.3v62.8
		C447.5,412.6,446,414.1,444.2,414.1z"/>
	<path class="st3" d="M344.4,400.6h-54c-1.8,0-3.3-1.5-3.3-3.3V358c0-1.8,1.5-3.3,3.3-3.3h54c1.8,0,3.3,1.5,3.3,3.3v39.2
		C347.7,399.1,346.2,400.6,344.4,400.6z"/>
	<path class="st5" d="M599.2,414.1H464.3c-1.8,0-3.3-1.5-3.3-3.3V253.5c0-1.8,1.5-3.3,3.3-3.3h134.9c1.8,0,3.3,1.5,3.3,3.3v157.2
		C602.5,412.6,601,414.1,599.2,414.1z"/>
	<path class="st6" d="M598.1,242.8H283.4c-2.4,0-4.4-2-4.4-4.4v-7.4c0-2.4,2-4.4,4.4-4.4h314.8c2.4,0,4.4,2,4.4,4.4v7.4
		C602.5,240.9,600.6,242.8,598.1,242.8z"/>
	<path class="st5" d="M311.2,237.5h-22.7c-0.8,0-1.5-0.7-1.5-1.5v-2.5c0-0.8,0.7-1.5,1.5-1.5h22.7c0.8,0,1.5,0.7,1.5,1.5v2.5
		C312.7,236.8,312,237.5,311.2,237.5z"/>
	<path class="st5" d="M498.6,237.5H326.3c-0.8,0-1.5-0.7-1.5-1.5v-2.5c0-0.8,0.7-1.5,1.5-1.5h172.3c0.8,0,1.5,0.7,1.5,1.5v2.5
		C500.1,236.8,499.4,237.5,498.6,237.5z"/>
	<path class="st5" d="M537.7,237.5h-10.5c-0.8,0-1.5-0.7-1.5-1.5v-2.5c0-0.8,0.7-1.5,1.5-1.5h10.5c0.8,0,1.5,0.7,1.5,1.5v2.5
		C539.2,236.8,538.5,237.5,537.7,237.5z"/>
	<path class="st5" d="M568.4,238.8h-3.1c-1,0-1.8-0.8-1.8-1.8v-3.1c0-1,0.8-1.8,1.8-1.8h3.1c1,0,1.8,0.8,1.8,1.8v3.1
		C570.2,238,569.4,238.8,568.4,238.8z"/>
	<path class="st5" d="M579.1,238.8h-3.1c-1,0-1.8-0.8-1.8-1.8v-3.1c0-1,0.8-1.8,1.8-1.8h3.1c1,0,1.8,0.8,1.8,1.8v3.1
		C581,238,580.2,238.8,579.1,238.8z"/>
	<path class="st5" d="M589.9,238.8h-3.1c-1,0-1.8-0.8-1.8-1.8v-3.1c0-1,0.8-1.8,1.8-1.8h3.1c1,0,1.8,0.8,1.8,1.8v3.1
		C591.8,238,590.9,238.8,589.9,238.8z"/>
	<polygon class="st1" points="314,321 299.2,321 299.2,267.1 314,279.2 	"/>
	<polygon class="st1" points="318.1,321 332.9,321 332.9,267.1 318.1,279.2 	"/>
	<polygon class="st1" points="351.8,321 336.9,321 336.9,267.1 351.8,279.2 	"/>
	<polygon class="st1" points="370.6,321 355.8,321 355.8,280.6 370.6,289.7 	"/>
	<polygon class="st1" points="389.5,321 374.7,321 374.7,291.4 389.5,298.1 	"/>
	<polygon class="st1" points="393.6,321 408.4,321 408.4,292.7 393.6,299.1 	"/>
	<polygon class="st1" points="427.3,321 412.4,321 412.4,291.4 427.3,298.1 	"/>
	<line class="st7" x1="299.2" y1="265.8" x2="315.4" y2="279.2"/>
	<line class="st7" x1="334.9" y1="263.7" x2="316" y2="278.6"/>
	<line class="st7" x1="353.8" y1="278.6" x2="334.9" y2="263.7"/>
	<line class="st7" x1="371.3" y1="288" x2="353.8" y2="278.6"/>
	<line class="st7" x1="392.2" y1="298.1" x2="371.3" y2="288"/>
	<line class="st7" x1="409.7" y1="290" x2="392.2" y2="298.1"/>
	<line class="st7" x1="427.3" y1="296.8" x2="409.7" y2="290"/>
	<path class="st6" d="M293.3,400.6c0.1,0.4,0.5,0.6,1.2,0.6l30.5-0.4l-1.8-9.9l-1.8-10.2L293.3,400.6z"/>
	<path class="st8" d="M307.1,401.1l30.6-0.4c0.6,0,1.3-0.2,1.9-0.5l-5.5-16.1l-10.9,6.9L307.1,401.1z"/>
	<path class="st9" d="M555.6,311.6h-84.1c-0.6,0-1.1-0.5-1.1-1.1v-1.8c0-0.6,0.5-1.1,1.1-1.1h84.1c0.6,0,1.1,0.5,1.1,1.1v1.8
		C556.7,311.1,556.2,311.6,555.6,311.6z"/>
	<path class="st9" d="M534,322.4h-62.5c-0.6,0-1.1-0.5-1.1-1.1v-1.8c0-0.6,0.5-1.1,1.1-1.1H534c0.6,0,1.1,0.5,1.1,1.1v1.8
		C535.1,321.9,534.6,322.4,534,322.4z"/>
	<path class="st9" d="M581.2,352.1H471.5c-0.6,0-1.1-0.5-1.1-1.1v-1.8c0-0.6,0.5-1.1,1.1-1.1h109.7c0.6,0,1.1,0.5,1.1,1.1v1.8
		C582.3,351.6,581.8,352.1,581.2,352.1z"/>
	<path class="st9" d="M581.2,362.8H471.5c-0.6,0-1.1-0.5-1.1-1.1v-1.8c0-0.6,0.5-1.1,1.1-1.1h109.7c0.6,0,1.1,0.5,1.1,1.1v1.8
		C582.3,362.3,581.8,362.8,581.2,362.8z"/>
	<path class="st9" d="M581.2,373.6H471.5c-0.6,0-1.1-0.5-1.1-1.1v-1.8c0-0.6,0.5-1.1,1.1-1.1h109.7c0.6,0,1.1,0.5,1.1,1.1v1.8
		C582.3,373.1,581.8,373.6,581.2,373.6z"/>
	<path class="st9" d="M555.6,384.4h-84.1c-0.6,0-1.1-0.5-1.1-1.1v-1.8c0-0.6,0.5-1.1,1.1-1.1h84.1c0.6,0,1.1,0.5,1.1,1.1v1.8
		C556.7,383.9,556.2,384.4,555.6,384.4z"/>
	<path class="st9" d="M534,395.2h-62.5c-0.6,0-1.1-0.5-1.1-1.1v-1.8c0-0.6,0.5-1.1,1.1-1.1H534c0.6,0,1.1,0.5,1.1,1.1v1.8
		C535.1,394.7,534.6,395.2,534,395.2z"/>
	<path class="st9" d="M432.9,373.6h-69.3c-0.6,0-1.1-0.5-1.1-1.1v-1.8c0-0.6,0.5-1.1,1.1-1.1h69.3c0.6,0,1.1,0.5,1.1,1.1v1.8
		C434,373.1,433.5,373.6,432.9,373.6z"/>
	<path class="st9" d="M416.6,384.4h-52.9c-0.6,0-1.1-0.5-1.1-1.1v-1.8c0-0.6,0.5-1.1,1.1-1.1h52.9c0.6,0,1.1,0.5,1.1,1.1v1.8
		C417.7,383.9,417.2,384.4,416.6,384.4z"/>
	<path class="st9" d="M402.8,395.2h-39.1c-0.6,0-1.1-0.5-1.1-1.1v-1.8c0-0.6,0.5-1.1,1.1-1.1h39.1c0.6,0,1.1,0.5,1.1,1.1v1.8
		C403.9,394.7,403.4,395.2,402.8,395.2z"/>
	<g>
		<path class="st0" d="M347.9,590.5H299c-3.6,0-6.6-3-6.6-6.6v-77.2c0-3.6,3-6.6,6.6-6.6h48.9c3.6,0,6.6,3,6.6,6.6v77.2
			C354.5,587.5,351.5,590.5,347.9,590.5z"/>
		<path class="st1" d="M347.2,590h-47.5c-3.6,0-6.6-3-6.6-6.6v-74.1c0-3.6,3-6.6,6.6-6.6h47.5c3.6,0,6.6,3,6.6,6.6v74.1
			C353.8,587.1,350.8,590,347.2,590z"/>
		<path class="st2" d="M346.5,589.3h-46.2c-3.6,0-6.6-3-6.6-6.6v-70.8c0-3.6,3-6.6,6.6-6.6h46.2c3.6,0,6.6,3,6.6,6.6v70.8
			C353.1,586.4,350.2,589.3,346.5,589.3z"/>
		<path class="st5" d="M345.6,588h-44.4c-3.6,0-6.6-3-6.6-6.6v-67.1c0-3.6,3-6.6,6.6-6.6h44.4c3.6,0,6.6,3,6.6,6.6v67.1
			C352.2,585,349.2,588,345.6,588z"/>
		<path class="st8" d="M318.7,521.6h-18.6c-0.5,0-0.9-0.4-0.9-0.9v-1.5c0-0.5,0.4-0.9,0.9-0.9h18.6c0.5,0,0.9,0.4,0.9,0.9v1.5
			C319.6,521.2,319.2,521.6,318.7,521.6z"/>
		<path class="st9" d="M344.6,526.6h-44.9c-0.2,0-0.5-0.2-0.5-0.5v-0.8c0-0.2,0.2-0.5,0.5-0.5h44.9c0.2,0,0.5,0.2,0.5,0.5v0.8
			C345,526.4,344.8,526.6,344.6,526.6z"/>
		<path class="st9" d="M344.6,531h-44.9c-0.2,0-0.5-0.2-0.5-0.5v-0.8c0-0.2,0.2-0.5,0.5-0.5h44.9c0.2,0,0.5,0.2,0.5,0.5v0.8
			C345,530.8,344.8,531,344.6,531z"/>
		<path class="st9" d="M344.6,535.4h-44.9c-0.2,0-0.5-0.2-0.5-0.5v-0.8c0-0.2,0.2-0.5,0.5-0.5h44.9c0.2,0,0.5,0.2,0.5,0.5v0.8
			C345,535.2,344.8,535.4,344.6,535.4z"/>
		<path class="st10" d="M344.1,521.6h-18.6c-0.5,0-0.9-0.4-0.9-0.9v-1.5c0-0.5,0.4-0.9,0.9-0.9h18.6c0.5,0,0.9,0.4,0.9,0.9v1.5
			C345,521.2,344.6,521.6,344.1,521.6z"/>
	</g>
	<g>
		<path class="st0" d="M787.4,314.1h-48.9c-3.6,0-6.6-3-6.6-6.6v-77.2c0-3.6,3-6.6,6.6-6.6h48.9c3.6,0,6.6,3,6.6,6.6v77.2
			C794,311.1,791,314.1,787.4,314.1z"/>
		<path class="st1" d="M786.8,313.7h-47.5c-3.6,0-6.6-3-6.6-6.6v-74.1c0-3.6,3-6.6,6.6-6.6h47.5c3.6,0,6.6,3,6.6,6.6v74.1
			C793.3,310.7,790.4,313.7,786.8,313.7z"/>
		<path class="st2" d="M786.1,313h-46.2c-3.6,0-6.6-3-6.6-6.6v-70.8c0-3.6,3-6.6,6.6-6.6h46.2c3.6,0,6.6,3,6.6,6.6v70.8
			C792.6,310,789.7,313,786.1,313z"/>
		<path class="st5" d="M785.2,311.6h-44.4c-3.6,0-6.6-3-6.6-6.6v-67.1c0-3.6,3-6.6,6.6-6.6h44.4c3.6,0,6.6,3,6.6,6.6V305
			C791.7,308.7,788.8,311.6,785.2,311.6z"/>
		<path class="st8" d="M758.3,245.2h-18.6c-0.5,0-0.9-0.4-0.9-0.9v-1.5c0-0.5,0.4-0.9,0.9-0.9h18.6c0.5,0,0.9,0.4,0.9,0.9v1.5
			C759.2,244.8,758.8,245.2,758.3,245.2z"/>
		<path class="st9" d="M784.1,250.2h-44.9c-0.2,0-0.5-0.2-0.5-0.5V249c0-0.2,0.2-0.5,0.5-0.5h44.9c0.2,0,0.5,0.2,0.5,0.5v0.8
			C784.6,250,784.4,250.2,784.1,250.2z"/>
		<path class="st9" d="M784.1,254.6h-44.9c-0.2,0-0.5-0.2-0.5-0.5v-0.8c0-0.2,0.2-0.5,0.5-0.5h44.9c0.2,0,0.5,0.2,0.5,0.5v0.8
			C784.6,254.4,784.4,254.6,784.1,254.6z"/>
		<path class="st9" d="M784.1,259h-44.9c-0.2,0-0.5-0.2-0.5-0.5v-0.8c0-0.2,0.2-0.5,0.5-0.5h44.9c0.2,0,0.5,0.2,0.5,0.5v0.8
			C784.6,258.8,784.4,259,784.1,259z"/>
		<path class="st10" d="M783.7,245.2H765c-0.5,0-0.9-0.4-0.9-0.9v-1.5c0-0.5,0.4-0.9,0.9-0.9h18.6c0.5,0,0.9,0.4,0.9,0.9v1.5
			C784.6,244.8,784.2,245.2,783.7,245.2z"/>
	</g>
	<g>
		<path class="st0" d="M156.5,322.2h-48.9c-3.6,0-6.6-3-6.6-6.6v-77.2c0-3.6,3-6.6,6.6-6.6h48.9c3.6,0,6.6,3,6.6,6.6v77.2
			C163,319.2,160.1,322.2,156.5,322.2z"/>
		<path class="st1" d="M155.8,321.7h-47.5c-3.6,0-6.6-3-6.6-6.6V241c0-3.6,3-6.6,6.6-6.6h47.5c3.6,0,6.6,3,6.6,6.6v74.1
			C162.3,318.8,159.4,321.7,155.8,321.7z"/>
		<path class="st2" d="M155.1,321h-46.2c-3.6,0-6.6-3-6.6-6.6v-70.8c0-3.6,3-6.6,6.6-6.6h46.2c3.6,0,6.6,3,6.6,6.6v70.8
			C161.7,318.1,158.7,321,155.1,321z"/>
		<path class="st5" d="M154.2,319.7h-44.4c-3.6,0-6.6-3-6.6-6.6V246c0-3.6,3-6.6,6.6-6.6h44.4c3.6,0,6.6,3,6.6,6.6v67.1
			C160.7,316.7,157.8,319.7,154.2,319.7z"/>
		<path class="st8" d="M127.3,253.3h-18.6c-0.5,0-0.9-0.4-0.9-0.9v-1.5c0-0.5,0.4-0.9,0.9-0.9h18.6c0.5,0,0.9,0.4,0.9,0.9v1.5
			C128.2,252.9,127.8,253.3,127.3,253.3z"/>
		<path class="st9" d="M153.1,258.3h-44.9c-0.2,0-0.5-0.2-0.5-0.5v-0.8c0-0.2,0.2-0.5,0.5-0.5h44.9c0.2,0,0.5,0.2,0.5,0.5v0.8
			C153.6,258.1,153.4,258.3,153.1,258.3z"/>
		<path class="st9" d="M153.1,262.7h-44.9c-0.2,0-0.5-0.2-0.5-0.5v-0.8c0-0.2,0.2-0.5,0.5-0.5h44.9c0.2,0,0.5,0.2,0.5,0.5v0.8
			C153.6,262.5,153.4,262.7,153.1,262.7z"/>
		<path class="st9" d="M153.1,267.1h-44.9c-0.2,0-0.5-0.2-0.5-0.5v-0.8c0-0.2,0.2-0.5,0.5-0.5h44.9c0.2,0,0.5,0.2,0.5,0.5v0.8
			C153.6,266.9,153.4,267.1,153.1,267.1z"/>
		<path class="st10" d="M152.7,253.3H134c-0.5,0-0.9-0.4-0.9-0.9v-1.5c0-0.5,0.4-0.9,0.9-0.9h18.6c0.5,0,0.9,0.4,0.9,0.9v1.5
			C153.6,252.9,153.2,253.3,152.7,253.3z"/>
	</g>
	<path class="st8" d="M518.1,339.9h-45.5c-1.2,0-2.2-1-2.2-2.2V334c0-1.2,1-2.2,2.2-2.2h45.5c1.2,0,2.2,1,2.2,2.2v3.7
		C520.3,338.9,519.3,339.9,518.1,339.9z"/>
	<path class="st10" d="M580.1,339.9h-45.5c-1.2,0-2.2-1-2.2-2.2V334c0-1.2,1-2.2,2.2-2.2h45.5c1.2,0,2.2,1,2.2,2.2v3.7
		C582.3,338.9,581.3,339.9,580.1,339.9z"/>
	<path class="st8" d="M393.4,361.5h-28.6c-1.2,0-2.2-1-2.2-2.2v-3.7c0-1.2,1-2.2,2.2-2.2h28.6c1.2,0,2.2,1,2.2,2.2v3.7
		C395.6,360.5,394.6,361.5,393.4,361.5z"/>
	<path class="st10" d="M434.5,361.5h-28.6c-1.2,0-2.2-1-2.2-2.2v-3.7c0-1.2,1-2.2,2.2-2.2h28.6c1.2,0,2.2,1,2.2,2.2v3.7
		C436.7,360.5,435.7,361.5,434.5,361.5z"/>
	<g>
		<path class="st11" d="M547.3,536.7c2.9-9-6.2-9.7-7.6-8.8c-8.4,6-7.6,9.2-6.2,11.6c0.7,1.2,2.3,1.8,3.3,2c1.1,0.1,2.2-0.1,3.4-0.3
			C542.8,540.8,545.2,539,547.3,536.7z"/>
		<path class="st12" d="M573.3,550.5c2.8,6.9,1.2,8.8-1,15.9l-2.5,0.1l-0.2-11.2l-0.2-4.4L573.3,550.5z"/>
		<g>
			<path class="st13" d="M567.4,641.5c0.7,0.7,1.5,1,3.1,1.9v1.4c1.6,2.9,3.2,4.2,5.3,3.6c2.9-0.9,3.8-1.6,3.8-3.6
				c0.3-3.5,0.4-4.2-0.5-6.8c-2.9-1.9-4.2-2.3-6.3-2.9c-1.7-0.5-4.2-2-6.7-2.7c-1.4-0.4-2.3,0.8-2.3,1.7
				C563.6,636.3,565.5,639.6,567.4,641.5z"/>
			<path class="st14" d="M567.4,641.5c0.7,0.7,1.5,1,3.1,1.9v1.4c1.6,2.9,3.2,4.2,5.3,3.6c2.9-0.9,3.8-1.6,3.8-3.6
				c0.2-2,0.3-3,0.2-4c-3.9,2-7.1,1.8-10.7-1.9c-1.1-1.1-4.3-4-4.5-6.2c-0.5,0.4-0.7,1-0.8,1.5C563.6,636.3,565.5,639.6,567.4,641.5
				z"/>
		</g>
		<g>
			<path class="st13" d="M558.7,647.6c-0.8-0.2-2.9-3.4-5.8-2.8c-3.5,0.8-7.6-1.2-10.8-1.3c-0.6,0-1.3-0.1-1.6,0.1
				c-1.5,1.1-1.7,2.3-0.4,3.8c1,1.1,2.7,2.5,4.2,3.5c1.6,1,2.8,1.9,4.7,2.7c1.4,0.6,2.4,0.5,3.7,1l0.1,1.1c1,0.9,2.2,1.4,2.9,1.5
				c1.8,0.2,3.9-1,5.5-2.6c0.2-1.9,0.8-3.7-0.1-6.4L558.7,647.6z"/>
			<path class="st14" d="M539.6,644.5c-0.6,0.9-0.4,1.8,0.5,2.9c1,1.1,2.7,2.5,4.2,3.5c1.6,1,2.8,1.9,4.7,2.7c1.4,0.6,2.4,0.5,3.7,1
				l0.1,1.1c1,0.9,2.2,1.4,2.9,1.5c1.8,0.2,3.9-1,5.5-2.6c0.1-1.4,0.6-2.8,0.3-4.6c-3.9,3-6.3,1-7.8,0.9c-2.2-0.1-5.5,0.1-10.4-3.5
				C542,646.4,540.8,645.5,539.6,644.5z"/>
			<path class="st15" d="M550.7,648.6c-0.9-1.6-0.9-2.6-0.6-3.3l-6.3-1.2c-3.1-0.6-3.7-0.1-2.9,0.7
				C543.7,647.2,547.3,647.8,550.7,648.6z"/>
		</g>
		<path class="st11" d="M557.8,562.7c1,7.4,2.8,34.9,5.3,41.1c3.7,9.3,4.8,23.5,7,33.7c0.3,1.2,1.4,2.7,3.1,3.6
			c2.6,1.3,6.3,1.4,7-0.5c-0.6-9.4-0.4-21.3-0.7-26.6c-0.3-5.9-1.8-11.6-4.1-15c-0.3-4.2,0-21.6,0-29.4c0-7-0.1-11.5-2.1-16
			L557.8,562.7z"/>
		<path class="st16" d="M557.8,565.4c1,7.4,4.1,31.8,5.3,38.3c2,10.8,4.8,23.5,7,33.7c0.3,1.2,1.4,2.7,3.1,3.6
			c0.5,0.3,1,0.5,1.6,0.6c-0.9-7.4-1.9-25.4-3.9-33.7c-0.9-3.8-0.8-4.6-2.9-7c-0.3-13.4-0.5-27.1,2.7-40.4l4.3,1.9
			c-0.3-2.2-0.8-4.2-1.7-6.2L557.8,565.4z"/>
		<path class="st17" d="M544.1,564.5c-2.8,13.6,1.9,34.9,3.6,44.6c1.9,11.1,1.7,26.6,2.7,37.6c0.6,3.2,8.5,6.2,11.5,3
			c0.6-9.4,1.7-23.4,1.2-28.6c-0.4-4.3-0.5-6.8-2.2-10.6c0.1-4.1,0.2-23,0.8-30.7c0.5-6.5,3.8-18.2,0.3-26.3l-12.4,14L544.1,564.5z"
			/>
		<path class="st11" d="M544.1,568.6c-2.8,13.6,1.9,30.7,3.6,40.4c1.9,11.1,1.7,26.6,2.7,37.6c0.3,1.6,2.4,3.1,4.8,3.9
			c0.2-9.6,0.3-23,0-30.3c-0.3-7.8-1.1-5.3-1.8-8.8c-0.5-11.4-1.6-28.5-2.1-40.4l-1.6,0.5L544.1,568.6z"/>
		<path class="st18" d="M571.1,497c7.3,3,7.5,12.9,6.2,19.7c-1.4,7.7-3.5,12-3.9,18c-0.4,6.4,4.4,19.6,3,30c-0.9,2.8-8.8,6.3-11,7.4
			c0.5-4.3,0.6-8.2,0.1-13c-0.4,6-0.8,9.5-2.1,13.6c-5.5,3.3-17.1,6.1-21.4-0.2c1.2-9,4.3-19.4,4.2-26.5
			c-0.3-12.1-5.9-25.5-4.6-31.6c0.5-2.6,2.2-4.7,4.1-6.2c4.1-3.3,15.4-10.7,22.1-11.6C569.2,496.6,570.2,496.7,571.1,497z"/>
		<path class="st17" d="M551.4,576.4c-3.5,0.1-8-1-9.7-4.5c-0.6-12.5,4.5-23.7,4.4-30.8c-0.1-6.5-8.5-21.4-5.1-30
			c0.6-1.5,1.6-2.3,2.8-3.2c1.9-1.6,7.6-4.2,11.5-6.2l-0.1,2.1c-3.1,1.9-4.1,2.3-6.6,5c6.8,7.6,3.3,28.5,2.2,36.9
			C549.8,552.9,551.3,566.4,551.4,576.4z"/>
		<path class="st19" d="M570.7,499.1c-0.9,8-9.5,11.2-19.3,10.6c5.1,8.4,3.5,24.8,1.9,37.1c-1.1,8.4-1.3,20.9-1.2,28.4
			c4.8-0.7,6.2-1.1,10.7-2.9c2.8-11,2.2-20.5,1.6-31c2.1,9.3,2,19.8,2.4,28.7c3.8-1.7,5.6-2.8,9-5.2c0.9-13.4-3.7-27.3-3.3-30.5
			C574,521.8,581.8,502.6,570.7,499.1z"/>
		<path class="st18" d="M561.1,576.6l-5.8,2.6c0.1,8.7,0.2,24.3,1.2,33.5c2.3,5.9,1.7,29.9,1.2,37.7c1.7-0.2,2.1-0.2,3.6-1
			c0.3-14.7,1.9-33.4-1.4-38.1C559.5,600.5,559.9,587.5,561.1,576.6z"/>
		<path class="st17" d="M569.8,574.1c-0.1,6.6,0.2,20,0.4,26.6c2.3,3.2,3.3,6.7,3.9,10.5c1.5,8.3,1.5,21.6,1.9,30
			c1.6,0.2,2.1,0.1,3.6-0.6c-0.5-8.6-0.8-22.3-2.1-30.8c-0.5-3.5-1.2-6.3-3.7-10.7c-0.1-7.7,0.3-20.6,0.5-28.3
			C572.5,572.6,572,572.9,569.8,574.1z"/>
		<g>
			<path class="st20" d="M548.4,497.7c0.9,0.4,5.4-0.2,5.2,0.2c-0.1,2.5-1,3.8-0.9,8.2c5.2,3.7,12.5-0.6,12-3.3c0-1.8-0.9-6.9,0-8.4
				c1-1.7,3.2-3.6,3.9-6.1c1.2-4.1,0.8-8.6-3-11.6c-7-5.5-15.8-1.6-18.1,6.5c-0.4,1.6,0.8,2.4,0.8,3.8c0,0.3-0.4,0.5-0.6,1.1
				C547.2,488.8,547.3,497.1,548.4,497.7z"/>
			<path class="st12" d="M548.4,497.6c0.9,0.4,5.3-0.2,5.2,0.2c-0.1,2.5-1,3.8-0.9,8.2c3.1-4.5,4.4-7,11.6-9.5
				c0-0.9,0.1-1.7,0.4-2.1c1-1.7,3.2-3.6,3.9-6.1c1.2-4.1,0.8-8.6-3-11.6c-7-5.5-15.8-1.6-18.1,6.5c-0.4,1.6,0.8,2.4,0.8,3.8
				c0,0.3-0.4,0.5-0.6,1.1C547.2,488.8,547.3,497.1,548.4,497.6z"/>
			<path class="st20" d="M548.5,497.7c0.5,0.3,2.4,0.1,3.8-0.5c0.9-0.3,1.6-1.1,1.7-1.2c0.6-0.2,1.9-2.1-0.1-5.1
				c-2-2.9,10.1,4.6,10.8,3.5c1-1.7,3.2-3.6,3.9-6.1c1.2-4.1,0.8-8.6-3-11.6c-7-5.5-15.8-1.6-18.1,6.5c-0.4,1.6,0.8,2.4,0.8,3.8
				c0,0.3-0.4,0.5-0.6,1.1C547.2,488.8,547.5,497.1,548.5,497.7z"/>
			<path class="st21" d="M548.3,497.6c0.2,0.1,1.3,0.1,1.8-0.1c0.6-0.7,1.2-2.1,1.2-2.7c-0.1-2.7-1.4-4.8-1.4-5.9
				c0-2.3,0.8-1.1-0.1-3.6c-0.7-1.9,0.2-2.2,0.6-3.8c-1-0.4-1.4-1.1-1.6-1.6c-0.6,1-1,2.1-1.4,3.2c-0.4,1.6,0.8,2.4,0.8,3.8
				c0,0.3-0.4,0.5-0.6,1.1C547.2,488.8,547.3,497,548.3,497.6z"/>
			<path class="st12" d="M553.5,491c2.5-2.3,4.9,5.1,0.9,5C556,494.3,554.8,491.7,553.5,491z"/>
			<path class="st21" d="M553.5,492.1c-0.4-1-0.1-1.4,0.4-1.3c0.5,0.1,1.2,0.8,1.6,1.9c0.6,1.7-0.3,3.9-1.9,3.1
				c1.4,0.1,1.3-1.6,0.9-2.7C554.2,492.3,553.7,491.8,553.5,492.1z"/>
			<path class="st12" d="M554.2,492.5c-0.4,0.7-0.5,1.2-0.4,1.4c0.1,0.2,0.4,0.4,0.8-0.1C554.6,493.4,554.4,492.9,554.2,492.5z"/>
			<path class="st22" d="M564.5,495.4c1.2-2.4,3.2-3.9,4.2-7.1c1.2-4.1,0.8-8.6-3-11.6c-5.5-4.3-12.1-2.8-15.8,1.9
				c-0.2,0.3,1.9,1.3,1.2,2.8c-1,2.6-1,3.8-0.6,4.3c1.5,2.2,1.6,2.5,1.5,5.9l0.9,0.7c0.4-2.6,1.5-2.4,2.7-1.6c2,1.5,2.8,5,6.1,5.7
				C562.8,496.8,563.9,496.2,564.5,495.4z"/>
			<path class="st22" d="M552,490.9c-0.3,1.6-0.4,2.7-1.1,3.5c-0.3,0.3-1,0.4-1.7,0.6c-0.1-0.8-0.2-1.2-0.4-1.8
				c-0.3-0.9-0.7-1.6-1.4-2c-0.1,0.2-0.1,0.9,0.1,1.1c0.3,0.3,0.4,0.7,0.5,1.2c0.2,0.6,0.2,0.9,0.2,1.7c-0.2,0-0.3,0-0.4,0.1
				c-0.1,0-0.1-0.5-0.2-0.5c-0.1,1.4-0.1,3.2,0.2,3.3c0.4,0.2,2.7-0.3,3.9-0.8c1.2-0.5,0.9-0.8,1-2.2c0.1-1.2,0.1-2.6,0.3-3.9
				L552,490.9z"/>
			<path class="st23" d="M551.3,493.7c-0.1,0.2-0.3,0.4-0.4,0.6c-0.3,0.3-1,0.4-1.7,0.6c-0.1-0.8-0.2-1.2-0.4-1.8
				c-0.3-0.9-0.7-1.6-1.4-2c-0.1,0.2-0.1,0.9,0.1,1.1c0.3,0.3,0.4,0.7,0.5,1.2c0.2,0.6,0.2,0.9,0.2,1.7c-0.2,0-0.3,0-0.4,0.1
				c-0.1,0-0.1-0.5-0.2-0.5c-0.1,1.4-0.1,3.2,0.2,3.3c0.3,0.1,1.7-0.1,2.9-0.5c0.4-0.9,0.7-2.3,0.7-2.8
				C551.4,494.4,551.3,494.1,551.3,493.7z"/>
			<path class="st24" d="M563.5,485.7c0,2-0.2,2.8-0.9,4.6c-0.2-1.2-0.3-2.4-0.6-3.5c-0.1-0.4-0.2-0.8-0.3-1.2
				c-0.3,1.7-0.5,3.5-0.7,5.2c-0.4-1.9-0.8-3.7-1.1-5.6c-0.7,1.1-0.9,3.3-1.2,4.7c-0.4-1.7-0.7-3.4-0.8-5.1c-0.7,0.8-1,2.8-1.2,3.9
				c-0.3-1.5-0.6-2.8-0.7-4.3c-0.5,0.7-0.6,2.3-0.7,3.2c-0.3-1-0.7-2.3-0.7-3.3c-0.8,1.3-0.8,2.8-0.9,4.3c-0.3-1.5-0.7-3.3-0.6-4.8
				c-0.3,0.5-0.7,2-0.9,2.7c-0.1-1.2-0.2-2.3-0.2-3.5c-0.6,0.7-1.3,2-1.4,3c-0.6-1.2-0.3-3.5,0.4-5l0.1-0.2l0.2,0
				c1.2,0.1,2.4,0.2,3.5,0.2c0.8,0,1.6,0.1,2.3,0.1c0.4,0,0.8,0.1,1.2,0.1c0.2,0,0.3,0,0.5-0.1c0.4,0,0.8-0.1,1.1-0.2
				c1.1-0.2,2.2-0.3,3.3-0.5c1.7-0.2,3.2-0.6,4.9-0.9c2.3,4.1,0.6,8-0.3,10c0.1-1.3,0.3-2.7,0.1-3.9c-0.1,1.1-0.7,2.6-1.1,3.6
				c0-1.3,0-2.4-0.3-3.7c0.1,1.8-0.2,2.8-1.1,4.4c0.1-1.6,0.3-2.9-0.2-4.6c-0.1,2-0.4,3.3-1.1,5.2
				C564,488.9,563.9,487.2,563.5,485.7z"/>
			<path class="st22" d="M568.7,485.7c-1.2-0.9-4-1.8-9.3-2.2c-3.7-0.3-6.2-1.1-8.4-2.3c-3.3-1.8-2.8-5.5-1.4-6.7
				c2.7-2.4,9.8-2.2,14.5,0.2C567.5,476.5,569.4,480,568.7,485.7z"/>
			<path class="st25" d="M568.7,485.7c-1.2-0.9-4-1.8-9.3-2.2c-3.7-0.3-6.2-1.1-8.4-2.3c-3.3-1.8-2.8-5.5-1.4-6.7
				c0.3-0.2,0.6-0.4,0.9-0.6c0.9,6.4,4,4.7,10.3,6.9c-0.9-0.9-0.5-0.7-1.3-1.2c2,0.7,3.5,0.6,5.8,2.1c-0.7-0.7-0.9-1.1-1.3-1.4
				c1,0.2,3,0.9,4.4,3l0.2-3C568.8,482.1,568.7,483.8,568.7,485.7z"/>
			<path class="st23" d="M549.2,479.6c1,1.3,5.5-1.7,11.7-0.6c-1.3-4.1-2.1-5-4-6.2c-2.4-1.6-6.5-0.9-7.8,1.2
				C547.9,476.2,548.4,478.6,549.2,479.6z"/>
			<path class="st22" d="M557.9,478.5c-1.9-1.9-4.8-1.5-7.3-0.8c1.5-1.4,4.5-0.9,6-0.1c-2-1.9-3.3-1.8-5.8-1.5
				c1.8-0.9,4.2-0.7,5.5,0.4c-1.8-2.1-2.6-2-5.2-1.8c1.8-1,4.6-0.6,5.7,0.4c-1.3-1.6-2.4-1.9-4.9-1.9c2.1-0.7,3.8-0.6,5.6,1.2
				c-1.4-2.5-4.3-2.5-6.3-1.7c-1.7,0.7-2.8,2.5-2.8,4.1c0,1.5,0.6,2.4,1,2.5C551.4,479.7,552.4,478,557.9,478.5z"/>
		</g>
		<path class="st26" d="M564.3,497.6c0.6-0.1,1.2-0.4,1.8-0.5c1.4,0.5,2.1,4.6,1.5,5.8c-1.2,2.7-4.6,4.3-8.9,5.2
			c-5.2,1-12.3-1.7-13.8-0.9c-0.3,0.1,4.8-2.9,5.4-3C555.5,503.2,565.3,503.1,564.3,497.6z"/>
		<path class="st27" d="M564.4,498.6c-0.2,2.5-6.6,4.5-11.3,2.7l0.1-0.5c-0.5,0.4-2.4,3.2-2.4,4.3c5.1,1.2,12.8,1,14.8-3
			C565.9,501.4,565.3,499.7,564.4,498.6z"/>
		<path class="st18" d="M541.2,510.1c-3.6,4.3-5.9,12.5-8.2,20.7c-1.7,6-0.1,8.8,2.3,9.9c2.5,1.2,5.1,0.1,8-6c1.6-3.4,2.4-5.4,3.1-8
			c1.4-4.6,4.1-13.7,0.4-17.2C544.9,507.8,542.7,508.4,541.2,510.1z"/>
		<path class="st17" d="M541.2,510.1c-3.6,4.3-5.9,12.5-8.2,20.7c-1.7,6-0.1,8.8,2.3,9.9c-1.1-9.3,7.2-26.8,11.6-31.2
			C544.9,507.8,542.7,508.4,541.2,510.1z"/>
	</g>
	<g>
		<path class="st28" d="M105.5,542.3l29.4-16.8c3.2-1.5,7.8-2.6,11.1-0.9c3,1.5,7.9,4.7,10.1,6c1.6,0.9,7.4,4.4,3.8,6.3
			c-10.5,5.7-20.9,12.1-31.5,17.9c-2,1.1-5,1.5-8,1.2c-3.1-0.3-6.2-1.2-8.7-2.6c-1.8-1-3.5-2-5.2-3c-2.3-1.3-3.5-2.9-3.7-4.4
			C102.6,544.5,103.6,543.2,105.5,542.3z"/>
		<g>
			<g>
				<path class="st20" d="M171.2,392c-0.2-0.9-0.8-0.8-1.7-0.3c-0.5,0.3-0.8,0.7-1.8,0.6c-2.3-0.1-2.6,1.5-2.7,3.1
					c0,0.7-0.3,1.1-0.8,1.8c-0.7,1-0.8,2.8-0.8,3.5l3.8,1.9l1.4-3.4c1.9-0.6,5.5-1.9,6.7-3.1c0.8-0.8,1.8-5.9,1-6.8
					c-0.9-1-1.9-0.8-2.5,0C173.5,389.8,171.5,391.3,171.2,392z"/>
				<path class="st29" d="M164.6,396c0.8,1.6,2.5,3,4.1,3.5l-0.7,1.4c-2.6,0.4-5.4-0.6-4.5-3.2C163.7,397.2,164.3,396.5,164.6,396z"
					/>
				<path class="st30" d="M163.7,397.2c0.2,1.1,3.4,3.4,4.6,3.3c-2.2,8.7-4.9,16-10,23.2c-0.6,0.8-1.2,1.1-1.8,1.3
					c-1.2,0.3-2.7-0.6-4-1.2l1.1-9C154.7,410.7,159.6,403.2,163.7,397.2z"/>
				<path class="st30" d="M158.3,423.5c-0.7,0.9-1.3,1.3-2,1.5c-1.3,0.3-2.8-0.6-4-1.2c-3.8-2-10.3-10.3-16.9-23.2
					c0.7-0.1,5.5-2.8,6-2.8c4.5,0.1,5.3,4.2,7.7,8.9c1.2,2.4,4.6,5,6.4,8.1L158.3,423.5z"/>
				<path class="st31" d="M157.5,424.4c-0.4,0.3-0.7,0.5-1.1,0.6c-1.3,0.3-2.8-0.6-4-1.2c-3.8-2-10.3-10.3-16.9-23.2
					c0.7-0.1,5.5-2.8,6-2.8c0.4,0,0.7,0,1,0.1c2,1.8,3.8,3.3,4.9,5.6c1.3,2.6,2.1,10.2,2.7,12.7
					C151.3,419.4,153.6,422.9,157.5,424.4z"/>
				<path class="st31" d="M163.7,397.2c0.1,0.5,0.9,1.3,1.7,1.9c-3.2,5.2-8.3,11.3-9.7,17c-0.4,1.8-0.1,3.2,0.4,4.6
					c-1.7-2.2-2.1-4.8-2.2-7.4C155.7,409.1,160,402.6,163.7,397.2z"/>
			</g>
			<path class="st32" d="M139.9,397.6c2.9-0.2,4.2,0.4,5.8,2.7c2.7,4,3.1,12.6,2.9,20.3c-0.1,4.4-0.8,8.2-0.9,13.6
				c-0.1,6.5,0.4,16.8,0,23.7c-0.6,1.3-3.2,4.6-3.8,4.5c0.5-6.9,0.7-16.1,0.4-25.5c-0.3-9.2-0.9-18.5-2.6-25.5
				c-2.5-10.2-6.8-11.3-6.4-12.7C135.5,398.4,139.7,397.6,139.9,397.6z"/>
			<path class="st13" d="M118.5,532.9c-0.5,1.5-1,2.7-0.9,3.6c0.1,1,0.3,1.9,0.3,3.2c0,1.1-0.1,2-0.2,3.2c-0.1,1.2,0,1.8,0.5,2.3
				c0.9,0.8,3.5,2.1,4.8,2.5c0.7,0.2,1.3,0.4,2.2,0.3c1-0.1,1.9-0.1,2.9-0.5c0.3-0.1,0.5-1.1,0.6-2.1c0-1.9-0.1-1.7-0.9-4.7
				c-0.3-1-0.5-2-0.9-3.2c-0.5-1.5-1-2.8-1.1-4.3l-5.6-0.2L118.5,532.9z"/>
			<path class="st14" d="M118.5,532.9c-0.5,1.5-1,2.7-0.9,3.6c0.1,1,0.3,1.9,0.3,3.2c0,1.1-0.1,2-0.2,3.2c-0.1,1.2,0,1.8,0.5,2.3
				c0.9,0.8,3.5,2.1,4.8,2.5c0.7,0.2,1.3,0.4,2.2,0.3c1-0.1,1.9-0.1,2.9-0.5c0.2-0.1,0.5-1,0.6-1.8l0,0c-1.7,0.6-3.3,0.8-5,0
				c-3.4-1.7-3-3.1-2.7-7.1c2.2-0.4,3.1-0.8,4.3-2c-1.9,0.6-4,0.7-5-0.5l-0.3-3.2L118.5,532.9z"/>
			<path class="st13" d="M141.9,520.4c0.6,2.1,0.7,3.2,1.6,4.4c1.7,2.4,4.3,4.2,8,6.8c1.8,1.3,2.2,2.5,0.4,3.5
				c-1.4,0.9-4.9,0.2-7-0.3c-4.1-1-5.7-3.4-7.1-4l-1.1,0.2c-0.9,0-4.2-1.4-4.9-2.2c-0.2-0.8-0.4-2.1-0.5-3.1
				c-0.1-3.4,0.4-3.1,1.3-5.8C135.8,520.2,138.8,520.3,141.9,520.4z"/>
			<path class="st14" d="M153.1,533.6c0,0.5-0.3,1.1-1.2,1.6c-1.4,0.9-4.9,0.2-7-0.3c-4.1-1-5.7-3.4-7.1-4l-1.1,0.2
				c-0.9,0-4.2-1.4-4.9-2.2c-0.2-0.8-0.4-2.1-0.5-3.1c-0.1-3.4,0.4-3.1,1.3-5.8c1.4,0.1,2.7,0.2,4.1,0.3c0.2,2.3-0.1,6.2,1.8,7.6
				c2.1,1.6,3.7,2.1,5.1,2.9C148.1,533.4,151,535.6,153.1,533.6z"/>
			<path class="st31" d="M147.7,454.1c0.7,8-2.1,24.2-3.3,33.8c-1.5,11.8-1,23.6-1.7,35.4c-1.5,2.4-8.6,2.6-11-0.8
				c-0.4-9.4-0.9-16.8-0.7-21.9c0.2-4.3,0.4-6.7,1.8-10.5c-1.2-8.1-2.9-23.6-2.5-32.7l7.6-3l4-3.3L147.7,454.1z"/>
			<path class="st33" d="M147.7,454.1c0.2,2.4,0.1,5.2-0.2,8.2c-1.7,3.5-5.1,6.6-8.3,8.4c-0.6,5.6-0.6,13.7-0.6,19.3
				c-2.3,11-2.9,18.7-1.4,35c-2.1-0.2-4.3-1-5.5-2.6c-0.4-9.4-0.9-16.8-0.7-21.9c0.2-4.3,0.4-6.7,1.8-10.5
				c-1.2-8.1-2.9-23.6-2.5-32.7l7.6-3l4-3.3L147.7,454.1z"/>
			<path class="st30" d="M134.1,458.3c0.5,8-2.7,28.2-4.2,37.8c-1.9,11.8-2.1,25.6-3.2,37.4c-1.6,2.5-7.7,3-10-0.1
				c-0.1-9.4-1-19.9-0.5-25c0.3-4.3,1-6.8,2.5-10.6c-0.2-7.4-4.2-37.1,1.3-42.1l8.4-0.6L134.1,458.3z"/>
			<path class="st31" d="M134.1,458.3c0.2,3.3-0.2,8-0.9,13.1c-3.6,1.5-6.6,1.8-9.4,1.8c-0.1,5.6-0.5,17.3-1.1,23.5
				c-0.1,1.7,0.3,3.3,0.5,4.6c-2,9.4-2,26-2,34.1c-1.7-0.1-3.5-0.8-4.5-2.1c-0.1-9.4-1-19.9-0.5-25c0.3-4.3,1-6.8,2.5-10.6
				c-0.2-7.4-4.2-37.1,1.3-42.1l8.4-0.6L134.1,458.3z"/>
			<path class="st32" d="M118.8,407.8c3.5-1.9,15.4-9.5,18.9-9c9.4,1.4,10.6,9.9,10.3,22.8c-0.1,4.3-0.8,8-0.8,13.3
				c-0.1,6.4,1.2,17.3,0.9,24c-1.8,3.9-1.7,3.5-4.7,6c0.4-4.3,0.5-8.4,0.4-13c-0.7,4.6-1.2,9.2-2.2,13.8c-5.2,3.6-20.1,5.6-24.8-0.3
				c0-11.7,4-11.9,4.5-19.4c0.4-6.1-8.3-22.3-8.2-30.7C112.9,411.6,116.1,409.3,118.8,407.8z"/>
			<path class="st30" d="M118.8,407.8l7.5-4.2c-1.1,1.8-4.8,4.7-8,7.4c4,5.9,8.9,18.9,9.6,28c1.2,16.3-3.1,19.3-3.2,30.6
				c-3.2-0.5-6.2-1.8-8.1-4.1c0-11.7,4-11.9,4.5-19.4c0.4-6.1-8.3-22.3-8.2-30.7C112.9,411.6,116.1,409.3,118.8,407.8z"/>
			<path class="st34" d="M138.5,402.2c2.7,1.3,3,1.7,4.9,4.6l-1.7,1.4l2.1,0.7c0.8,8.5,0.3,20-0.2,28.6c-1-8.5-0.9-20.9-3.7-28.4
				c-0.7-1.9-1.5-3-2.7-4.7C136.9,403.9,138,401.9,138.5,402.2z"/>
			<path class="st20" d="M126,403.2c-0.3,3,8.1,7,11.3,5.5c0.3-0.2,0.5-0.9,0.7-1.2c-0.2-0.8-0.4-1.2-0.3-2c0.1-0.9,0.4-1.6,0.7-2.4
				c0.4-1,0.4-3.2,1-5.6l-9.5-4.1l-2-1.1C128.8,397,127.7,399.2,126,403.2z"/>
			<path class="st12" d="M126,403.2c0,0.2,0,0.3,0,0.5c4.5-2.8,7.3-0.5,12.6-1.9c0.2-1.1,0.3-2.7,0.8-4.3l-9.5-4.1l-2-1.1
				C128.8,397,127.7,399.2,126,403.2z"/>
			<path class="st29" d="M127.4,404.6c-0.8,12.5,12.6,11.7,16.1,30.5c-0.8-10.4-0.3-18.2-4.5-28l-1,1.4l-2.8,0.5L127.4,404.6z"/>
			<path class="st35" d="M137.8,412.8c-0.2,1-0.4,1.9-0.5,2.9c3.5,8.2,4.2,10.2,6.2,19.6c-0.1-1.5,0.2-0.4,0.1-1.7
				c-0.4-6.5-1.2-13.2-2.8-20.8c-0.9-0.5-1.5-0.6-1.9-0.7c-0.2-0.1-0.3,0-0.7,0L137.8,412.8z"/>
			<path class="st35" d="M135.5,409.7c0.5,1.9,0.5,1.9,2.3,3.2l1.2-0.6c0.5-2.2,0.3-3.7-0.2-3.9
				C137.3,408.4,136.6,408.6,135.5,409.7z"/>
			<path class="st36" d="M137.2,408.6c0.4-0.9,0.1-2.7,0.5-3.6c1.1,0.1,2.2,2.7,3.1,4.6C139.4,408.6,138.8,408.5,137.2,408.6z"/>
			<path class="st34" d="M126.5,402.3c-1.3,1.2-2.3,1.7-2.6,2.5c-1.1,2.6,2.1,7.2,3.4,11.7l2.5-0.7l-0.8,2.5
				c9.6,7.3,13.7,10.9,15.2,21.4C142.4,413.9,125.8,413.5,126.5,402.3z"/>
			<path class="st15" d="M126.1,536.9c-1.6,1.3-1,1.8-3.4,2.1c0.6,2.3,0.7,2.4,1.8,4.6c0.1,0.9,0.2,2,1.9,2.1c3.2,0,1-2.6,1-2.7
				C127.2,541.5,126.8,538.8,126.1,536.9z"/>
			<path class="st32" d="M130.2,473.3c-2,0.8-3.1,0.9-5,1.1c-0.7,10.7-0.8,17.9-1,27.8l-2.4,32.5c0.6,0.1,1.4-0.1,1.9-0.4
				C125.1,514.5,126.7,492.9,130.2,473.3z"/>
			<path class="st15" d="M142.9,524.3c-0.4,0.7-1.3,1-2.8,1.4c2.3,2.6,2.6,2.4,5.8,4.1c1.6,1.8,1.8,2.1,2.8,2.7
				c1.2,0.7,2.9,1.4,3.6,0.9c0.3-0.2-0.1-0.8-1.4-1.8c-1.5-1.1-3-2.2-4.4-3.3C145.1,527.2,143.9,525.9,142.9,524.3z"/>
			<path class="st36" d="M126.7,401.5c-0.2,3.5,6.9,6.2,10.6,7.1c-0.9,1.1-2.1,2.5-2.1,3.6c-2.7-0.7-7.7-2.5-9.6-5.9
				C124.4,404,125.5,402.4,126.7,401.5z"/>
			<path class="st30" d="M146.8,466.2c-1.9,1.9-3.1,3-5.3,4.7c-0.5,8.4-1,20.4-1.9,28.8l0.2,24.7c1.6-0.4,2.4-1,2.7-1.4l0.4-29
				C144.1,486,145.3,474.2,146.8,466.2z"/>
			<path class="st37" d="M129.3,421.1c1.9,8.8,3.6,14.7,3.9,20.1c0.4,7.7-0.4,14.5-2.4,27.2l8.6-2.1c1.2-7.7,3.8-16.4,3.2-24.8
				C142,433.2,138.3,425,129.3,421.1z"/>
			<path class="st32" d="M129.8,450.8c3.7-1.7,4.7-2.1,7.9-2.9l-1.3,9.4c-2,1.7-5,2.8-7.6,2.8L129.8,450.8z"/>
			<path class="st30" d="M129.8,450.8c3.7-1.7,4.7-2.1,7.9-2.9c-0.4,2.8-0.2,2.7-3,4.1c-5,2.4-3.5,2.3-5.1,8.1c-0.1,0.3-0.5,0-0.8,0
				L129.8,450.8z"/>
			<path class="st37" d="M138.8,402c1,1.2,3.8,4.1,4.4,5.4c2.4,5.4,2.1,12.2,2,19.5c-0.1,13.1-0.2,23.6-1,36.6
				c1.4-1.2,2.7-2.7,3.5-4.8c-0.5-10.9-1.4-23.1-0.6-33.9c0.5-6.6,0.9-13.9-0.9-19.1c-0.7-2.1-3.1-6.2-6.4-7.1L138.8,402z"/>
			<path class="st32" d="M130.1,449.5c3.7-1.7,5.3-2.7,8.1-3.9l-0.7,3.8c-0.9,0.9-5.8,3.6-8,3.5L130.1,449.5z"/>
			<path class="st30" d="M130.1,449.5c3.7-1.7,5.3-2.7,8.1-3.9c-2.7,2.1-7.2,3.8-7.9,7.2c-0.3,0-0.5,0.1-0.8,0.1L130.1,449.5z"/>
			<g>
				<path class="st32" d="M145.2,445.1c1.2-1.4,1.5-1.8,2.6-2.3l-0.1,9.7c-0.6,0.9-2.3,1.9-2.8,1.8L145.2,445.1z"/>
				<path class="st30" d="M145.2,445.1c1.2-1.4,1.5-1.8,2.6-2.3c-0.1,2.8-0.1,2.7-1,3.8c-1.7,2-1.1,2-1.6,7.7c-0.1,0-0.2,0-0.3,0
					L145.2,445.1z"/>
				<path class="st37" d="M147.5,446.1l-1.5,2.4l-0.4,5.4c0.8-0.4,1.1-0.6,1.7-1.5L147.5,446.1z"/>
			</g>
			<path class="st37" d="M137.1,451.2l-4.6,2.7l-1.8,5.4c2.3-0.6,3.1-0.9,5.1-1.9L137.1,451.2z"/>
			<path class="st37" d="M137.8,446.3c-2.2,1.6-5.2,3.8-6.4,5.9c2.4-0.8,3.3-1.3,5.7-2.8C137.4,448.3,137.6,447.4,137.8,446.3z"/>
			<g>
				<path class="st32" d="M145,442.9c1.3-0.8,1.8-1.4,2.8-1.9l0.1,3.7c-0.3,0.7-2,2.1-2.8,1.5L145,442.9z"/>
				<path class="st30" d="M145,442.9c1.3-0.8,1.8-1.4,2.8-1.9c-0.8,1.5-2.5,2-2.4,5.3c-0.1,0-0.2-0.1-0.3-0.1L145,442.9z"/>
				<path class="st37" d="M147.7,441.5c-0.7,1.1-1.7,2.5-2,4.4c0.9-0.2,1.2-0.5,2-1.4C147.7,443.5,147.7,442.6,147.7,441.5z"/>
			</g>
			<g>
				<path class="st21" d="M136.7,401.5c-1.2-0.5-4.1-1-5.2-1.5c-2.5-1.1-2.7-3.7-3.9-6.7c-2.3-1-3.2-2-3.7-3.3c-1.1-3,0-6.6,2-8.9
					c1.7-2,4-2.9,6.7-2.9c5.4,0.1,8.3,3.5,9.5,7.9c0.1,0.4,0.1,0.7,0.1,1.1c-0.1,1-0.4,1.4-0.5,2.1c-0.2,1.5,0.5,1.2,0.6,2.7
					c0.2,2.4-0.2,4.7-0.6,7.4c-0.1,0.8-0.3,1.2-0.7,1.5c-0.4,0.3-0.9,0.4-1.6,0.7C138.9,401.9,138.3,402,136.7,401.5z"/>
				<path class="st20" d="M136.7,401.5c-1.2-0.5-4.1-1-5.2-1.5c-2.5-1.1-2.7-3.7-3.9-6.7c-2.3-1-3.2-2-3.7-3.3c-1.1-3,0-6.6,2-8.9
					c1.7-2,4-2.9,6.7-2.9c4.7,0.1,7.5,2.7,8.9,6.2c-0.2,0.5-4.5,2.8-8.5,2.8c-0.3,1.8,0.6,3.3,0.7,4.1c0,0.9,0,1.6,0.1,2.1
					c0.1,0.7,0.9,1.3,1,2.3c0.4,3.3,2.2,5.5,3.7,6.1C138.1,401.8,137.5,401.7,136.7,401.5z"/>
				<path class="st22" d="M139.5,382.5c0.6,0,1.5,0.6,2,1.8c-0.4-2-1-3.1-2.3-3.3L139.5,382.5z"/>
				<path class="st22" d="M130.4,386.5c-1.4-3-6.2-3.8-7-5.2c-2,3.6-1.6,9.4,1.6,12.7c1.5,1.7,2,2.5,2.7,5.2
					c0.6-1.6,0.6-1.9,0.7-3.5l0.5-3.8l0.2-0.2c0.2,0.4,0.8,1.6,1,2c0.2,0,0.6-0.3,1-0.5C129.8,389.4,131.4,388.6,130.4,386.5z"/>
				<path class="st22" d="M134.8,384.8c4.7-0.6,8.9-3,5.1-5.5c-2.5-1.7-5.7-3.1-9.6-2.7c-3.3,0.3-6.8,2-7,4.8c1,1.3,6.7,8.5,7.1,5.5
					c0-0.3-0.7-1.2-0.4-1.8C130.3,384.5,132,385.2,134.8,384.8z"/>
				<path class="st23" d="M133.7,384.3c-1.3-0.5-3.1,0-5.3-0.9c-2.2-0.9-4.4-2.7-4.9-2.1c-0.8,1.2-1.2,3.1-1.2,4.7
					c2.4,1.4,5,1.9,8.2,1c-0.6-1.1-0.8-1.6-0.5-2.1C130.4,384.4,130.7,384.7,133.7,384.3z"/>
				<path class="st25" d="M134.8,384.8c4.3-0.6,8.3-2.6,5.8-5c-0.4,0.5-0.9,1-1.5,1.3l0.4-0.8c-2.3,0.8-3.3,2.5-5.5,2.5l0.8-0.7
					c-2.6,0.3-4.3,0.6-5.7,0.3l0.6-0.5c-2.3,0.2-4.8-0.5-6.1-1.8c-0.2,0.4-0.3,0.8-0.3,1.2c1.3,1.8,5.5,3.3,7.1,3.4
					C131.2,384.9,132.7,385.1,134.8,384.8z"/>
				<path class="st20" d="M127.7,390.5c-2.1-0.5-1.9,1.9-1.4,3.3c0.3,1,1.1,0.8,1.5,1.5c0.4,0.9,1.2,1.2,1.8,1.2
					c1.2-0.2,0.3-1.9,0.1-2.7C129.7,392.6,129,390.8,127.7,390.5z"/>
				<path class="st38" d="M124.9,378.6c1.4-1.6,4.4-2.3,6.4-2.3c1.7,0,3.8,0.4,5,0.6c-0.4,0.1-0.5,0.1-0.8,0.2
					c1.5,0.4,3.3,1.4,4.3,2.1c-2.9-0.6-5.2-0.6-6.4-0.4c0.2,0.1,0.2,0.2,0.7,0.4C131.2,379.1,129,377.1,124.9,378.6z"/>
			</g>
			<g>
				<path class="st21" d="M121.3,469c0.3,0.3,1.2,5.3,2.8,3.7c-0.6-2.5-0.3-5.5-2.1-7.4c-0.8-0.8-1.5-1.5-2.2-3
					C115.9,465.1,121.1,468.8,121.3,469z"/>
				<path class="st21" d="M114.7,462.5c0.6,1.8,0.5,4.3,0.5,6.1c0,1.8,0,1.6,0.9,3.1c0.9,1.7,1.6,2.8,2.8,3.6
					c1.2,0.9,4.9,2.3,5.6,1.4c0.3-1-1.4-1.3-1.8-2c-0.2-0.5-0.7-1.7-0.9-2.9c-0.1-0.7-0.2-1.6-0.2-1.9c-0.3-4.5-1.6-4.2-1.6-6.5
					L114.7,462.5z"/>
				<path class="st20" d="M114.7,462.5c0.6,1.8,0.5,4.3,0.5,6.1c0,1.8,0,1.6,0.9,3.1c0.9,1.7,1.6,2.8,2.8,3.6
					c1.2,0.9,4.9,2.3,5.6,1.4c-1.3-0.4-2.7-1.2-3.8-2.1c-0.7-0.6-1.6-1.4-2-2.5c-1-2.7-0.9-5.8-1.3-8.9l0.1-0.2L114.7,462.5z"/>
				<path class="st29" d="M115,464.4l0.1,1.5c2,1.5,5.3,1.3,7.1-0.3l-0.3-1.8L115,464.4z"/>
				<path class="st32" d="M114.9,410.9c-4.6,3-3.4,20.3-4,30.3c1.3,8.3,1.7,15,3.7,23.2c0.9,1.7,5.9,2.5,7.8,0.3
					c-0.9-7.1-1.2-16.1-2.5-23.2c0.9-4.3,2-12.6,2.8-18C123.2,418.9,119.6,411.5,114.9,410.9z"/>
				<path class="st30" d="M114.9,410.9c-4.6,3-3.4,20.2-4.1,30.2c1.3,8.3,1.7,15,3.7,23.2c0.5,0.8,1.7,1.6,4.4,1.6
					c-1.8-3-3.4-19.7-4.3-24.4c1.4-11.3,0.8-18.3,3.6-29.2C117.3,411.6,116.2,411,114.9,410.9z"/>
			</g>
		</g>
	</g>
	<g>
		<g>
			<path class="st39" d="M768.6,435.3c0,0-1.2-4-1.2-7.6c0-3.2,0-4.3,0-4.3l-7.5,3.3c0,0,0.5,6.4,0.5,8.4c0,0.4-0.3,2.4-0.2,3
				C760.6,439.4,764.1,442.6,768.6,435.3z"/>
			<path class="st40" d="M761.4,408.1c-5.8-0.4-7.2,4-7.8,8.1c-0.2,1.5,0.9,2.7,0.9,3.3c-0.1,0.7-0.7,1.5-0.2,3.5
				c0.5,1.7,1.1,3.6,1.9,6c0.5,1.4,1.1,2.2,1.9,2.4c1.8,0.4,4.4-0.2,7.9-3.5c3.1-2.9,3.9-8.1,4-8.6l-1.8-7.6
				C768.3,411.9,764.5,408.4,761.4,408.1z"/>
			<path class="st40" d="M765.4,408.3c-5.8-0.7-7.4,3.6-8.2,7.7c-0.3,1.5,0.7,3,0.6,3.6c-0.1,0.7-0.7,1.3-0.4,3.3
				c0.2,1.5,0.8,3.6,1.7,6.1c0.5,1.4,1,2.3,1.8,2.5c1.7,0.5,4.4,0.1,8-3c3.2-2.7,4.4-7.8,4.5-8.3l-1.3-7.7
				C772,412.4,768.4,408.7,765.4,408.3z"/>
			<path class="st41" d="M766.9,408.3c-5.8-0.7-8.2,2.9-9.5,6.9c-0.1,0.5,1.1,3.9,1,4.5c-0.1,0.7-0.4,0.8-0.3,2.8
				c0,0.6,0.5,2.4,0.8,3.5c0.3,1.4,1,5.2,1.8,5.4c1.7,0.5,6.1,0.1,9.7-3c3.2-2.7,4.4-7.8,4.5-8.3l-1.3-7.7
				C773.6,412.4,770,408.7,766.9,408.3z"/>
			<g>
				<path class="st42" d="M767.7,409.3c-0.1,0-0.1-0.1-0.1-0.1C767.4,409.1,767.5,409.1,767.7,409.3z"/>
				<path class="st43" d="M768.8,428.2c-2.4,2.1-4.6,3-6.3,3.2c-0.4,0-0.7,0-1,0c1.1-0.4,2.1-0.4,4.1-2.5c1.7-1.8,3.2-4.3,3.6-5.7
					c0.9-2.8,0.3-4-0.8-4.5c-0.8-0.4-5.5-1.2-7.7-3.5c-1.2-1.3-1.8-3.1-1.6-4.5c0.3-0.6,0.8-1.1,1.3-1.6c1.5,0.3,6,0.9,9.8,1.5
					c0.7,0.6,1.5,1.3,1.8,1.6l1.3,7.7C773.2,420.4,772,425.5,768.8,428.2z"/>
			</g>
			<path class="st44" d="M774,410.9c0,0-0.2-0.2-0.2-0.3c-5.2-8.5-15.7-3.6-16.8-3c-3.2,1.7-7.7,5-3.1,10.6c1.6,1.9,2.1,1.6,2.6,4.8
				c1.6,10.2-1.3,15.6-1.2,15.6c0.1,0,0.2,0,0.3,0c0.4-0.4,0.7-1.2,0.9-1.7c0.8-1.9,1.4-4.7,1.4-4.7s0,1.2-0.5,3.8
				c-0.2,1-1,2.6-1,2.6c2.8,0,7.9-0.4,11.1-2c4.4-2.2,4.9-3.7,5.2-5c0-0.1,0.6-2.2,1-5.5c-0.3,3.4-0.9,6.3-0.9,6.3s2.1-4.9,2.6-12.7
				C775.6,413.2,774,410.9,774,410.9z"/>
			<path class="st45" d="M773.2,411.6c-1-2-1.6-2.8-3.5-3.2c-0.2,0-0.6-0.1-1-0.3c-0.2-0.1-0.7,1.4-0.9,1.3c-0.1,0,0.1-1.6,0-1.6
				c-0.5-0.1-0.9,0-1,0.4c-0.3,1.1-0.5,2.3-0.6,1.8c-0.2-1.3,0.3-2.4,0.1-2.4c-0.1,0-0.5,0.2-0.7,0.6c-0.7,1.1-0.6,1.2-0.6,0.5
				c0-0.3,0.3-1.5,0.2-1.4c-0.7,0.3-0.9,1-1.3,1.5c-0.3,0.3-0.9,1.9-1,2.1c-0.2,0.6-0.6,0.2,0.2-2.4c-0.1-0.7-1.1,0.9-1.5,2.2
				c-0.3,1.2-0.3-0.4-0.2-1.5c0.1-1.1-1.1,1.1-1.5,1.7c-0.4,0.7,0.4-1.7,0.4-1.7s-1,0.5-1.8,2.4c-0.5,1.2-0.6-0.3-0.2-1.4
				c0.2-0.6-1.8,0.9-2.5,1.9c-0.4,0.6-0.3-0.2-0.2-1.3c-1.7,1.2-2.8,3.7-1,8.6c0.2,0.6,2.2,8.6,0.4,15.6c0,0,1-2.4,1.3-6.6
				c0.2-2.7,0.1-5.4-0.4-7.6c-0.2-1,1.8,5,1,11.5c0,0.2,0.6-1.4,0.6-6.5c0-1.2-0.3-2.8-0.3-2.8s0.8,0.3,1.2,6.7
				c0.2,2.9-0.5,5.4-1.1,6.9c-0.1,0.4-0.8,1.5-1.1,1.8c0.6,0,1.3-0.1,2-0.1c0.3-0.3,0.6-0.7,0.9-1.2c1.4-2.6,1.6-4.7,1.6-4.7
				s0.1,2.4-1.5,5.9c0.4,0,0.8-0.1,1.1-0.1c0.6-1.2,1-3.4,1-3.4s-0.1,1.5-0.7,3.3c0.1,0,0.2,0,0.3,0c0.5-0.9,0.8-2.2,0.8-2.2
				c-0.1,1-0.1,1-0.5,2.1c1.9-0.2,3.8-0.6,5.2-1.3c1.6-0.8,2.5-1.2,3.2-1.9c0.9-1,1.4-2.5,1.6-3.3c0.4-1.7,0.6-2.4,1.2-8.8
				c0.5,4.1-0.7,9.4-0.7,9.4s1.5-3.5,2.1-12.6C774.3,415.4,773.6,412.9,773.2,411.6z"/>
		</g>
		<g>
			<path class="st46" d="M761.8,459.9c-0.4,2.5,4.3,1.2,4.3,1.2c2.7-0.5,4.7-1.1,6.5-4.4c1-1.8,4.5-11.9,5.2-15.7
				c0.7-3.9-0.3-8.3-6.1-7.2c-3.6,0.7-1.9,6.5-1.9,9.7c0,2.5-3,9-3,9l-2.3,3C764.4,455.3,762.2,457.6,761.8,459.9z"/>
		</g>
		<path class="st47" d="M757.1,447.1c0,0-3.9,2-8.5,5.7c-2.4,1.9-4.2,3.8-4.7,5.6c-0.7,2.3-0.3,5.6,2.2,6.5c2.4,0.8,5.7-4.5,5.7-4.5
			L757.1,447.1z"/>
		<path class="st48" d="M744.7,577.1c3.8,2.1,4,3.9,2.1,3.9c-4.8,0-6.3,1.5-5.6,3c1.1,2.5,14.8,7.6,30.3,7.4
			c14.6-0.2,15.7-8.6,11.7-12.3c-2.8-2.6-16.2-9.7-30.7-10.9c-8.7-0.7-12.9,0.8-13.8,2C737.2,572.3,740.4,574.8,744.7,577.1z"/>
		<path class="st49" d="M774.9,482.8c0,0,2.1,3.5,0.7,12.2c-2,11.9-3.7,22.9-2,27.9c1.7,5,2.4,11.3,0.9,20.4
			c-1.1,7.2-2,13.1-2.5,16.3c-0.5,3.2-0.2,5-0.2,5s-0.8,7-1.3,9.4c-0.9,4.5-8.3,5.7-6.6,3.7c1.8-2,2.7-5.8,2.8-10.8
			c0.1-2.6-0.7-25-2-38.6c-0.2-1.6-1.6-2.7-2.1-5.8c-1-6.4-2.8-49.7-2.8-49.7S770.2,471.2,774.9,482.8z"/>
		<path class="st50" d="M768,568.9c1.5-6.9,2.2-14.8,2.4-24.9c0.2-8.2,0.1-12.5-1.9-17.4c-1.2-3.1,0.9-14.5,0.9-14.5
			s1.3-0.2,4.1-0.7c-0.8,5-1,8.5,0.1,11.5c1.7,5,2.4,11.3,0.9,20.4c-1.1,7.2-2,13.1-2.5,16.3c-0.5,3.2-0.1,4.9-0.1,4.9
			s-0.9,7.2-1.4,9.6c-0.3,1.4-5.5,3.3-6.2,3.8C765.3,576.6,766.6,575.4,768,568.9z"/>
		<path class="st50" d="M774.4,483c-0.9-2.2-3.8-5.2-5.1-6.4l-5-2.3c-0.1,0.6-1.8,1.9-1.9,2.5c0.2,3.9-0.5,20.2-0.7,33.9
			c0.3,5.6,0.7,10.1,1,11.9c0.3,1.9,0.9,2.8,1.4,4c3.4,1.2,9.5-3.5,9.5-3.7c-1.7-5,0-16,2-27.9C777,486.3,774.4,483,774.4,483z"/>
		<path class="st51" d="M766.8,485.1c0,0-2.3,4.6-2.2,8.2c0.1,1.7,1.2,6.7,1.2,6.7s0.5,1.1,1.2,1.2c0.4,0,1.6-0.5,1.9-0.7
			c1.3-0.7,1.3-2,1.3-2s-0.2-4.7,0.2-6.4c0.4-1.7,0.4-3.7,0.4-3.7L766.8,485.1z"/>
		<path class="st52" d="M766.9,485.4c0,0-2,4.3-2,5.7c0,1.4,1.8,7.3,1.8,7.3s0.8-1.7,1-2.6c0.3-1.2-0.3-3-0.3-3s0-0.1,1-1.3
			c1-1.2,0.7-3.4,0.7-3.4L766.9,485.4z"/>
		<path class="st39" d="M766.8,489.6c0,0,3.6,4.7,2.3,16.2c-0.8,6.6-4.8,27.6-4.8,27.6s2.5,8.9,1.1,17.2c-1.2,6.6-3.9,20.9-3.5,21.5
			c2,2.5-1.6,6.7-1.6,6.7s-1.3,5-3.6,6.7c-0.9,0.6-4.3,0.2-3-1.9c0.9-1.4,2.8-6.3,3.1-11.1c0.1-2.4-0.5-24.4-0.9-35.3
			c-0.1-1.8-0.8-2.7-0.9-7.1c-0.6-20.3-1-40.1-1-40.1L766.8,489.6z"/>
		<path class="st50" d="M766.8,489.6L754,490c0,1.3,0,2.7,0,4.2c0.2,6,0.4,20.1,0.8,33c1.5,1.9,6.6,2.3,10.6-0.1
			c0.7-3.7,1.6-8.5,2.3-12.8c0.1-4.4,0.4-15.2,1.2-20C768.3,490.6,766.8,489.6,766.8,489.6z"/>
		<path class="st50" d="M758.3,573.8c0.9-6,4.2-18.6,2.8-31.7c-0.7-6.6-3-8.3-3.1-11.2c-0.2-7.6-0.9-38.2-0.9-38.2
			s12.1,1.6,10.3,22.5c-1.4,7.5-3.1,18.2-3.1,18.2s2.5,8.9,1.1,17.2c-1.2,6.6-3.9,20.9-3.5,21.5c2,2.5-1.6,6.7-1.6,6.7
			s-1.3,5-3.6,6.7c-0.3,0.2-2.5,0.9-3,0.9C754.8,582.1,757.5,578.3,758.3,573.8z"/>
		<path class="st44" d="M754.3,466.7c0,0-2.7,8.9-3.6,14.6c-1.7,10.8,1.1,44.1,1.1,44.1s3.5,2.9,11.5,0.3c5.8-1.9,11.7-5.3,11.7-5.3
			s-0.5-12.3-0.4-13.7c1.9-14.4,2.8-17.8,1-23.9c-2-6.8-5.4-12.4-5.4-12.4L754.3,466.7z"/>
		<path class="st53" d="M775.6,482.8c-2-6.8-5.4-12.4-5.4-12.4l-0.9-0.2l-10.2,4.2c0,0,9,13.5,2.4,30.5c-1,2.6-1.1,3.7-0.5,21.3
			c0.7-0.2,1.5-0.3,2.3-0.6c5.8-1.9,10-4.2,10-4.2s0.4-6.1,0.5-7.4C775.7,499.7,777.4,489,775.6,482.8z"/>
		<path class="st54" d="M776.2,436.7c-0.2-2.6-3.5-3.2-3.5-3.2c-5-0.2-14.8,4.1-15.9,4.5c-2,0.7-4.6,3.1-5.9,7
			c-0.9,2.8-1.1,3.5-1.5,5c-1.7,5.2,0.3,5,2.4,7.7c1.1,1.3,1.3,1.6,1.3,3.7c0,1.2-3.2,20.4-3.4,21.5c-0.1,0.7,2.7,2.5,8.6,2
			c9.5-0.8,14.8-3.8,16.9-5.3c-1.4-5.2-3.7-13.5-3.7-17.3C772,456.7,776.8,444.3,776.2,436.7z"/>
		<path class="st55" d="M762,572.1c0,0,2,1.3,0.7,5.1c-0.3,0.7-0.7,0.6-0.7,0.8c0,0-0.4,0.4-0.8,1.4c-0.7,2.1-1.2,4-1.8,5.2
			c-0.5,1.2-2.9,2.4-3.7,2.5c-2.1,0.3-4.2,0.2-4.7,0.1c-0.6-0.1-0.4-0.7-0.1-0.9c1-0.7,2.5-2.4,2.5-2.4s0.9-0.1,1.4-0.4
			c1.7-1.1,2.5-4.3,4.6-8.9C760.3,572.4,762,572.1,762,572.1z"/>
		<path class="st55" d="M771.9,563.9c0,0,2,1.2,0.9,4.2c-0.4,1.1-0.9,0.7-1.3,2.2c-0.8,2.9-1.2,7.1-1.3,7.4
			c-0.6,1.7-2.8,2.7-3.9,2.8c-0.7,0-3.7,0-3.9,0c-0.4-0.1-0.9-1,0-1.4c0.4-0.2,1.5-1.2,1.6-1.2c0.3-0.1,2.4-0.7,3-2.4
			C767.8,572.6,770.3,562.5,771.9,563.9z"/>
		<path class="st56" d="M771.6,462.2c0.5-5.6,5.2-18,4.7-25.5c-0.1-1.1-0.7-1.8-1.4-2.3c-2.9-0.4-9.4,1.7-13,2.9
			c-3,1.1-4.7,2.4-4.7,2.4s1.7,1.3,2,4.8c0.5,5.8-2,9.3-2,9.3l0.1,30.9l0.1,0.1c0.3,0,0.6,0,0.9-0.1c9.5-0.8,14.8-3.8,16.9-5.3
			C773.8,474.3,771.6,466,771.6,462.2z"/>
		<path class="st57" d="M767.5,580.3c1.3-0.5,2.5-1.9,2.7-2.6c0.1-0.3,0.7-5,1.4-7.8c0.2-0.8,0.2-1.2,0.4-1.5c0,0-1.1,0-1.9,2.5
			c-0.9,2.8-2.1,5.6-2.9,7.6c-0.5,1.5-1.7,1.8-2.4,1.9C765.3,580.4,767.3,580.4,767.5,580.3z"/>
		<path class="st57" d="M762.2,577c-0.6,0.1-1.2,0.5-1.5,1.3c-1.1,2.4-2.7,5.3-3.7,7.1c-0.7,1.2-1.5,1.7-2.2,1.8c0.3,0,1,0,1.3-0.1
			c1.4-0.4,3.2-1.6,3.7-2.7c0.5-1.2,0.7-2.8,1.3-4.9c0.4-1.1,0.8-1.4,0.8-1.4c0,0,0-0.5,0-0.6C762,577.3,762.5,576.9,762.2,577z"/>
		<path class="st55" d="M771.9,579.6c0,0,0,0.2-0.3,0.2c-0.3,0-0.3-0.1-0.3-0.1l-0.1-12.8l0.9,0.3L771.9,579.6z"/>
		<path class="st55" d="M762.1,587.2c0,0,0,0.2-0.3,0.2c-0.3,0-0.3-0.1-0.3-0.1l-0.1-12.8l0.9,0.3L762.1,587.2z"/>
		<path class="st54" d="M745.2,464.7c3,2,6-0.7,7.5-2.5c1.8-2.2,4.1-7.5,5.8-10.2c1.2-1.9,1.4-11-2.9-11.4c-2.5-0.3-4.1,2.7-5.2,5.7
			c-1.1,2.9-2,5.5-2.7,6.8c-0.5,0.9-0.9,2.6-1.7,4.3c-0.1,0.2-0.6,0-0.6,0.2c0,0.9-0.2,1.4-0.3,1c-0.3-1.2-1.6,1.4-1.6,2
			C743.6,462.5,744.5,464.2,745.2,464.7z"/>
		<path class="st58" d="M757.2,439.7c-3.3-0.1-8.4,21.1-10.9,24.2c-0.2,0.2-1,0.7-1.6,0.5c0,0,0,0,0,0c0.1,0.1,0.1,0.1,0.2,0.2
			c0,0,0,0,0,0c0.1,0.1,0.1,0.1,0.2,0.2c3,2,6-0.7,7.5-2.5c1.8-2.2,4.1-7.5,5.8-10.2C759.6,450.2,760.6,440.9,757.2,439.7z"/>
		<path class="st47" d="M757.6,437.7c0,0,0.8-1.1,1.1-1.9c0.2-0.6,3.7-2.7,6.4-3.4c2.7-0.7,3.8-0.5,3.8-0.5s0.6-0.1,0.6,0.8
			c0,0.9,0.6,1.1,0.6,1.1L757.6,437.7z"/>
	</g>
	<line class="st59" x1="132.7" y1="369" x2="132.7" y2="362.8"/>
	<line class="st59" x1="283" y1="546.9" x2="157.5" y2="546.9"/>
	<line class="st59" x1="523" y1="546.9" x2="363.2" y2="546.9"/>
	<line class="st59" x1="744.8" y1="546.9" x2="581" y2="546.9"/>
	<line class="st59" x1="763.7" y1="324.2" x2="763.7" y2="397.2"/>
	<path class="st59" d="M132.7,226.4v-22c0-8.9,7.3-16.2,16.2-16.2h598.6c8.9,0,16.2,7.3,16.2,16.2v9.6"/>
	<line class="st59" x1="132.7" y1="362.8" x2="132.7" y2="329.1"/>
	<line class="st60" x1="133.4" y1="369.6" x2="140.1" y2="361.5"/>
	<line class="st60" x1="132" y1="369.6" x2="125.3" y2="361.5"/>
	<line class="st60" x1="133.4" y1="226.7" x2="140.1" y2="218.6"/>
	<line class="st60" x1="132" y1="226.7" x2="125.3" y2="218.6"/>
	<line class="st60" x1="523.7" y1="545.5" x2="515.6" y2="538.8"/>
	<line class="st60" x1="523.7" y1="546.9" x2="515.6" y2="553.6"/>
	<line class="st60" x1="744.8" y1="545.5" x2="736.7" y2="538.8"/>
	<line class="st60" x1="744.8" y1="546.9" x2="736.7" y2="553.6"/>
	<line class="st60" x1="283.7" y1="545.5" x2="275.6" y2="538.8"/>
	<line class="st60" x1="283.7" y1="546.9" x2="275.6" y2="553.6"/>
	<line class="st60" x1="763" y1="325.1" x2="756.2" y2="333.2"/>
	<line class="st60" x1="764.3" y1="325.1" x2="771.1" y2="333.2"/>
	<line class="st59" x1="321.4" y1="432" x2="321.4" y2="495"/>
	<line class="st60" x1="320.8" y1="432.9" x2="314" y2="441"/>
	<line class="st60" x1="322.1" y1="432.9" x2="328.9" y2="441"/>
	<line class="st59" x1="556" y1="432" x2="556" y2="468"/>
	<line class="st60" x1="555.4" y1="432.9" x2="548.6" y2="441"/>
	<line class="st60" x1="556.7" y1="432.9" x2="563.4" y2="441"/>
</g>
</svg>
